<?xml version="1.0" encoding="UTF-8" standalone="no"?><!DOCTYPE svg PUBLIC "-//W3C//DTD SVG 1.1//EN" "http://www.w3.org/Graphics/SVG/1.1/DTD/svg11.dtd"><svg width="100%" height="100%" viewBox="0 0 6921 5196" version="1.1" xmlns="http://www.w3.org/2000/svg" xmlns:xlink="http://www.w3.org/1999/xlink" xml:space="preserve" xmlns:serif="http://www.serif.com/" style="fill-rule:evenodd;clip-rule:evenodd;stroke-linejoin:round;stroke-miterlimit:2;"><path d="M0,5192.17l0,-1052.08l160.417,0c119.55,-21.05 241.137,-28.154 362.325,-21.179c150.696,11.979 290.454,66.146 359.896,138.888c102.212,100.691 145.97,247.058 115.8,387.325c-27.78,135.937 -100.346,251.562 -239.238,314.758c-159.546,72.917 -368.054,65.104 -538.192,-15.104c-5.22,-2.071 -10.783,-3.133 -16.395,-3.133c-24.384,-0.001 -44.446,20.062 -44.446,44.441c-0,1.571 0.083,3.138 0.25,4.7l-0,201.733l-160.417,-0.345Zm682.117,-362.154c111.112,-55.555 148.091,-138.888 157.466,-237.671c9.2,-81.771 -20.137,-183.684 -118.925,-262.329c-98.783,-78.646 -268.575,-78.817 -365.795,-46.355c-91.28,31.775 -160.871,107.171 -185.246,200.696c-18.4,78.646 -15.275,200.521 58.683,285.417c95.833,107.987 274.825,107.987 356.596,92.708c33.833,-5.954 66.6,-16.891 97.221,-32.466Z" style="fill:#373535;fill-rule:nonzero;"/><path d="M3373.44,4990.46l-160.417,0l-0,-351.733c-0,-83.333 12.325,-265.625 -120.488,-339.583c-90.971,-52.084 -314.754,-47.917 -413.541,7.637c-118.75,64.929 -106.421,180.554 -106.421,299.479l-0,384.2l-160.592,0l0,-850.691l160.592,-0c-0,-0 451.387,-64.759 627.95,32.462c173.612,95.663 173.612,260.417 173.612,379.688l-0.696,438.541Z" style="fill:#373535;fill-rule:nonzero;"/><path d="M4556.75,4422.92l-194.967,1.216c-89.583,-143.404 -220.833,-171.354 -329.858,-169.791c-98.787,3.125 -215.975,34.72 -288.542,149.65c-49.125,88.812 -54.258,195.6 -13.891,288.716c58.683,117.188 163.716,166.667 267.016,178.992c94.096,10.767 256.075,6.079 359.546,-121.525l47.917,-71.008l171.875,-0c-104.167,237.5 -293.921,320.658 -463.713,329.862c-111.112,7.813 -370.312,-18.404 -495.312,-192.883c-84.896,-117.188 -107.988,-276.042 -55.559,-404.167c74.134,-176.042 203.821,-250 362.676,-282.467c109.55,-23.087 378.125,-24.65 530.904,148.267c39.041,44.608 73.204,93.267 101.908,145.138Z" style="fill:#373535;fill-rule:nonzero;"/><path d="M4873.79,3933.16l-0,211.459c182.121,-37.671 470.833,-55.38 631.25,34.725c169.621,95.658 161.979,248.262 161.979,370.312l-0,441.317l-159.025,-0l-0,-377.084c-0,-89.583 10.937,-243.054 -100.175,-308.679c-111.113,-65.625 -319.446,-71.008 -435.242,-1.387c-111.112,64.754 -98.787,194.271 -98.787,291.666l-0,394.963l-160.417,-0l0,-1057.29l160.417,0Z" style="fill:#373535;fill-rule:nonzero;"/><path d="M6820.5,4289.92c100.346,117.362 117.708,271.529 82.983,398.091c-43.4,157.467 -166.837,253.125 -308.679,296.354c-169.792,50.696 -463.021,32.292 -598.958,-88.02c-109.713,-96.9 -164.629,-242.075 -146.529,-387.325c15.337,-142.734 102.775,-268.084 231.425,-331.771c134.895,-72.571 543.75,-117.363 739.758,112.671Zm-802.433,197.395c-18.575,72.571 -15.45,196.009 75.52,282.467c115.8,107.988 321.009,112.675 430.559,83.333c115.796,-32.291 189.929,-95.658 219.271,-206.77c24.65,-84.896 6.075,-208.334 -71.009,-280.905c-120.487,-114.233 -331.771,-112.67 -430.554,-84.72c-114.237,29.166 -196.008,97.05 -223.787,206.595Z" style="fill:#373535;fill-rule:nonzero;"/><path d="M1013.37,4990.62l543.229,-850.346l178.996,0l523.783,850.346l-216.492,0l-389.758,-645.487l-419.446,645.487l-220.312,0Z" style="fill:#373535;fill-rule:nonzero;"/><path d="M2492.19,0l-0.001,888.021l196.53,-0c58.333,-0 117.012,5.729 175.521,7.987c58.504,2.255 118.92,4.167 178.47,6.075c102.43,3.3 204.688,3.646 306.946,9.721c66.492,3.996 132.813,17.363 199.304,24.654c20.659,2.605 41.842,1.388 62.5,4.167c105.73,14.408 211.113,32.813 317.013,43.229c111.525,11.533 222.137,30.617 331.079,57.117c54.337,13.021 109.025,25.35 163.367,38.196l-0,-1079.17l-1930.73,-0Zm1362.5,1111.98c-87.846,-12.325 -176.217,-23.091 -264.409,-31.25c-66.666,-6.596 -133.508,-7.117 -200.35,-11.633c-34.721,-2.254 -70.658,-8.504 -105.9,-10.938c-76.041,-5.554 -152.141,-10.3 -228.3,-14.233c-107.637,-5.729 -215.279,-11.979 -322.741,-15.454c-79.517,-2.604 -159.03,-2.429 -238.196,-1.213l-2.604,0l-0.001,2129.17l1930.73,0l-0,-1287.15c-134.55,-0 -269.792,-7.117 -404.863,-9.721c-46.875,-1.042 -93.75,2.083 -140.971,0c-50.866,-1.563 -101.908,-6.946 -152.95,-9.725c-57.466,-2.95 -114.933,-4.338 -172.225,-7.638c-78.125,-4.512 -156.25,-9.895 -234.545,-15.625c-30.905,-2.083 -44.446,6.25 -39.584,34.721c11.629,65.279 23.784,130.559 39.929,195.313c11.113,45.312 28.992,89.583 44.271,134.375c3.029,10.287 7.471,20.104 13.196,29.167c15.296,15.625 15.296,40.974 0,56.599c-15.975,22.742 -8.854,59.2 -12.154,89.409c-2.275,13.621 -3.783,27.358 -4.513,41.146c1.309,10.816 3.28,21.541 5.9,32.116c0.267,8.754 -0.083,17.513 -1.041,26.217c-10.546,-0.179 -20.992,-2.117 -30.9,-5.729c-9.759,-7.067 -18.167,-15.829 -24.829,-25.867c-28.646,-35.937 -56.25,-72.396 -84.896,-108.162c-12.65,-12.455 -18.092,-30.55 -14.409,-47.917c7.796,-35.442 -2.716,-72.529 -27.95,-98.608c-16.229,-13 -24.154,-33.846 -20.662,-54.342c1.562,-7.988 -5.379,-17.363 -9.546,-26.738c-6.946,-14.583 -15.104,-29.166 -23.612,-45.312c49.654,-14.063 48.612,-13.888 39.237,-60.938c-10.246,-50.866 -19.271,-102.254 -27.604,-153.47c-2.108,-17.705 -16.908,-31.396 -34.725,-32.117c-49.479,-9.204 -98.783,-19.1 -148.608,-26.563c-41.667,-6.25 -72.05,-31.25 -76.913,-67.883c-3.379,-19.675 -5.237,-39.587 -5.554,-59.55c1.571,-9.45 8.267,-17.287 17.362,-20.312c50.692,-3.471 101.734,-4.338 152.95,-5.9l31.075,-0c41.842,-2.259 56.771,-17.363 59.03,-53.821c4.166,-65.279 8.508,-130.384 13.716,-195.834c2.429,-34.72 6.771,-70.658 10.242,-106.075l-0,-2.779c8.854,-14.929 5.554,-43.925 33.679,-38.196c28.125,5.73 14.583,28.646 15.454,45.834c3.471,58.854 11.979,118.75 48.959,168.925c39.929,53.992 42.012,108.508 32.637,165.625c-6.596,40.279 5.208,52.083 52.083,53.125c52.084,1.387 104.167,8.508 156.25,9.55c31.771,-0 63.542,-5.904 95.488,-7.467c31.942,-1.562 66.146,-1.041 99.304,-1.387c78.125,-0 156.25,-1.913 234.55,-2.434c109.375,0 219.096,1.563 328.296,-1.908c56.425,-1.738 113.021,-4.688 169.271,-8.333l-0,-421.355c-94.096,-24.654 -188.192,-49.133 -282.984,-70.658c-94.791,-21.529 -189.583,-33.508 -285.07,-47.05Z" style="fill:#373535;"/></svg>