<?xml version="1.0" encoding="UTF-8" standalone="no"?><!DOCTYPE svg PUBLIC "-//W3C//DTD SVG 1.1//EN" "http://www.w3.org/Graphics/SVG/1.1/DTD/svg11.dtd"><svg width="100%" height="100%" viewBox="0 0 6582 1039" version="1.1" xmlns="http://www.w3.org/2000/svg" xmlns:xlink="http://www.w3.org/1999/xlink" xml:space="preserve" xmlns:serif="http://www.serif.com/" style="fill-rule:evenodd;clip-rule:evenodd;stroke-linejoin:round;stroke-miterlimit:2;"><g><path d="M880.189,1037.77l0,-866.842l132.172,-0c98.501,-17.344 198.681,-23.197 298.531,-17.45c124.162,9.87 239.313,54.499 296.528,114.433c84.216,82.963 120.27,203.559 95.411,319.129c-22.888,112.003 -82.678,207.269 -197.114,259.338c-131.455,60.079 -303.251,53.642 -443.433,-12.444c-4.301,-1.707 -8.884,-2.582 -13.509,-2.582c-20.09,-0 -36.62,16.53 -36.62,36.617c0,1.294 0.069,2.585 0.206,3.872l0,166.214l-132.172,-0.285Zm562.016,-298.389c91.549,-45.773 122.017,-114.434 129.742,-195.824c7.58,-67.374 -16.592,-151.342 -97.986,-216.141c-81.391,-64.799 -221.287,-64.939 -301.39,-38.193c-75.208,26.181 -132.546,88.302 -152.63,165.36c-15.16,64.798 -12.585,165.215 48.351,235.163c78.96,88.974 226.437,88.974 293.81,76.385c27.876,-4.906 54.874,-13.917 80.103,-26.75Z" style="fill:#373535;fill-rule:nonzero;"/><path d="M3659.66,871.578l-132.172,-0l0,-289.804c0,-68.66 10.155,-218.856 -99.273,-279.792c-74.954,-42.913 -259.335,-39.48 -340.729,6.292c-97.842,53.497 -87.684,148.764 -87.684,246.75l0,316.554l-132.316,-0l0,-700.91l132.316,-0c0,-0 371.912,-53.356 517.387,26.747c143.044,78.819 143.044,214.565 143.044,312.835l-0.573,361.328Z" style="fill:#373535;fill-rule:nonzero;"/><path d="M4634.63,403.964l-160.639,1.002c-73.81,-118.155 -181.951,-141.184 -271.78,-139.896c-81.394,2.574 -177.948,28.607 -237.738,123.301c-40.475,73.175 -44.705,161.16 -11.445,237.882c48.351,96.554 134.891,137.321 220.003,147.476c77.528,8.871 210.987,5.009 296.24,-100.128l39.48,-58.506l141.613,0c-85.826,195.684 -242.17,264.2 -382.067,271.784c-91.549,6.437 -305.111,-15.164 -408.102,-158.922c-69.948,-96.555 -88.974,-227.439 -45.776,-333.005c61.08,-145.046 167.934,-205.983 298.818,-232.733c90.262,-19.022 311.549,-20.31 437.428,122.161c32.167,36.755 60.315,76.846 83.965,119.584Z" style="fill:#373535;fill-rule:nonzero;"/><path d="M4895.85,0.437l0,174.227c150.055,-31.038 387.934,-45.629 520.106,28.611c139.755,78.816 133.459,204.551 133.459,305.111l0,363.614l-131.025,0l-0,-310.69c-0,-73.81 9.011,-200.259 -82.537,-254.33c-91.549,-54.07 -263.201,-58.506 -358.609,-1.143c-91.549,53.353 -81.394,160.065 -81.394,240.313l0,325.421l-132.172,0l0,-871.134l132.172,0Z" style="fill:#373535;fill-rule:nonzero;"/><path d="M6499.8,294.381c82.678,96.698 96.983,223.721 68.372,327.999c-35.758,129.742 -137.462,208.558 -254.33,244.175c-139.896,41.77 -381.496,26.606 -493.499,-72.523c-90.396,-79.838 -135.643,-199.452 -120.73,-319.128c12.637,-117.602 84.679,-220.882 190.678,-273.356c111.145,-59.793 448.012,-96.698 609.509,92.833Zm-661.149,162.64c-15.304,59.793 -12.73,161.497 62.224,232.733c95.411,88.974 264.488,92.836 354.75,68.661c95.407,-26.606 156.488,-78.816 180.663,-170.365c20.31,-69.948 5.006,-171.652 -58.505,-231.445c-99.274,-94.12 -273.356,-92.833 -354.747,-69.804c-94.123,24.031 -161.497,79.962 -184.385,170.22Z" style="fill:#373535;fill-rule:nonzero;"/><path d="M1715.13,871.715l447.583,-700.625l147.479,0l431.561,700.625l-178.374,0l-321.133,-531.836l-345.594,531.836l-181.522,0Z" style="fill:#373535;fill-rule:nonzero;"/></g><path d="M-0,0l-0,291.039l64.41,-0c19.118,-0 38.35,1.877 57.525,2.617c19.174,0.739 38.975,1.366 58.492,1.991c33.57,1.082 67.084,1.195 100.598,3.186c21.792,1.31 43.528,5.691 65.319,8.08c6.771,0.854 13.714,0.455 20.484,1.366c34.652,4.722 69.19,10.754 103.897,14.168c36.551,3.78 72.803,10.034 108.508,18.719c17.808,4.268 35.731,8.308 53.541,12.518l0,-353.684l-632.774,0Zm446.544,364.438c-28.791,-4.039 -57.753,-7.568 -86.657,-10.241c-21.849,-2.162 -43.756,-2.333 -65.662,-3.813c-11.38,-0.739 -23.158,-2.787 -34.708,-3.585c-24.922,-1.82 -49.863,-3.375 -74.823,-4.665c-35.277,-1.877 -70.555,-3.926 -105.775,-5.065c-26.06,-0.853 -52.12,-0.796 -78.066,-0.397l-0.853,0l-0,697.81l632.774,0l0,-421.85c-44.097,0 -88.421,-2.332 -132.689,-3.186c-15.362,-0.341 -30.725,0.683 -46.201,0c-16.671,-0.512 -33.4,-2.276 -50.128,-3.187c-18.834,-0.967 -37.668,-1.422 -56.445,-2.503c-25.604,-1.479 -51.209,-3.243 -76.869,-5.121c-10.129,-0.683 -14.567,2.048 -12.973,11.379c3.811,21.395 7.794,42.789 13.086,64.012c3.642,14.85 9.502,29.36 14.509,44.04c0.993,3.371 2.449,6.588 4.325,9.559c5.013,5.12 5.013,13.429 0,18.55c-5.236,7.453 -2.902,19.402 -3.983,29.302c-0.746,4.464 -1.24,8.966 -1.479,13.485c0.428,3.545 1.074,7.06 1.933,10.526c0.088,2.869 -0.027,5.74 -0.341,8.592c-3.456,-0.058 -6.88,-0.693 -10.127,-1.877c-3.198,-2.316 -5.954,-5.188 -8.138,-8.478c-9.388,-11.778 -18.435,-23.727 -27.823,-35.449c-4.146,-4.082 -5.93,-10.012 -4.722,-15.704c2.555,-11.616 -0.891,-23.771 -9.161,-32.318c-5.319,-4.26 -7.916,-11.092 -6.772,-17.81c0.512,-2.617 -1.763,-5.69 -3.128,-8.763c-2.277,-4.779 -4.95,-9.559 -7.739,-14.85c16.274,-4.609 15.932,-4.552 12.86,-19.972c-3.358,-16.671 -6.316,-33.512 -9.047,-50.298c-0.691,-5.802 -5.542,-10.29 -11.381,-10.526c-16.216,-3.017 -32.375,-6.26 -48.705,-8.706c-13.655,-2.048 -23.613,-10.241 -25.207,-22.248c-1.107,-6.448 -1.716,-12.974 -1.82,-19.516c0.515,-3.097 2.709,-5.666 5.69,-6.658c16.614,-1.137 33.342,-1.421 50.128,-1.933l10.184,-0c13.713,-0.74 18.606,-5.691 19.346,-17.639c1.366,-21.395 2.789,-42.732 4.496,-64.182c0.796,-11.38 2.219,-23.158 3.357,-34.765l-0,-0.911c2.901,-4.893 1.82,-14.396 11.038,-12.518c9.217,1.877 4.779,9.388 5.064,15.021c1.138,19.289 3.926,38.919 16.046,55.363c13.086,17.695 13.769,35.563 10.697,54.282c-2.162,13.201 1.707,17.07 17.069,17.411c17.07,0.455 34.14,2.788 51.209,3.13c10.413,-0 20.825,-1.935 31.295,-2.447c10.469,-0.512 21.679,-0.342 32.546,-0.455c25.605,0 51.209,-0.627 76.871,-0.797c35.847,-0 71.806,0.512 107.595,-0.626c18.493,-0.569 37.042,-1.536 55.477,-2.731l-0,-138.094c-30.839,-8.08 -61.678,-16.103 -92.745,-23.158c-31.066,-7.055 -62.133,-10.981 -93.428,-15.42Z" style="fill:#373535;"/></svg>